Coordinates
version=1
nRows=26
nColumns=22
inDegrees=yes

Units are S.I. units (second, meters, Newtons, ...)
If the header above contains a line with 'inDegrees', this indicates whether rotational values are in degrees (yes) or radians (no).

endheader
time	pelvis_tilt	pelvis_list	pelvis_rotation	pelvis_tx	pelvis_ty	pelvis_tz	hip_flexion_r	hip_adduction_r	hip_rotation_r	knee_angle_r	ankle_angle_r	subtalar_angle_r	hip_flexion_l	hip_adduction_l	hip_rotation_l	knee_angle_l	ankle_angle_l	subtalar_angle_l	lumbar_extension	lumbar_bending	lumbar_rotation
      2.00000000	    -11.26050172	     -0.18783507	     -5.44994996	     -0.63170244	      0.97344740	      0.15696495	     36.90927180	     -1.31336716	     -1.33816386	    -35.59565601	     15.22389941	     -0.95110777	     15.62463732	      4.01846555	     -3.24514318	    -19.63865178	     21.49548221	     -7.05617909	      0.85574225	      1.48649813	     -0.40963969
      2.01000000	    -11.25036644	     -0.24634639	     -5.49251027	     -0.62921734	      0.97325695	      0.15726486	     37.01317595	     -1.22031474	     -1.41115436	    -34.55319567	     14.90152027	     -0.73446614	     15.48723481	      3.95006390	     -3.27835985	    -19.71783791	     21.67173836	     -7.05550720	      0.79378400	      1.53919459	     -0.32490940
      2.02000000	    -11.26614022	     -0.28200351	     -5.53982897	     -0.62672372	      0.97302410	      0.15759480	     37.14370557	     -1.14128777	     -1.48393388	    -33.50671412	     14.53742983	     -0.53581914	     15.37620066	      3.90701811	     -3.26686298	    -19.79422863	     21.81324680	     -7.04914493	      0.76096780	      1.56738479	     -0.19320219
      2.03000000	    -11.28262283	     -0.34840596	     -5.58222787	     -0.62415514	      0.97280230	      0.15796974	     37.24263462	     -1.03139809	     -1.57604462	    -32.43116734	     14.23566999	     -0.22862836	     15.26512671	      3.82134604	     -3.29894629	    -19.88245072	     21.99342903	     -7.02797790	      0.72990428	      1.63653361	     -0.11479062
      2.04000000	    -11.32049973	     -0.40502985	     -5.62606583	     -0.62156486	      0.97255445	      0.15838162	     37.35919520	     -0.92216115	     -1.66210267	    -31.36170763	     13.93662001	      0.11363924	     15.17469749	      3.74563795	     -3.29960093	    -19.96962305	     22.14585863	     -6.99641075	      0.72423011	      1.69456068	     -0.01025772
      2.05000000	    -11.38185802	     -0.45855823	     -5.67453031	     -0.61895865	      0.97227773	      0.15883894	     37.49787038	     -0.80558484	     -1.74846392	    -30.30563636	     13.59268529	      0.33605890	     15.11016472	      3.66444981	     -3.31679801	    -20.06040380	     22.26136223	     -6.98781012	      0.74412369	      1.75134667	      0.10477898
      2.06000000	    -11.44198962	     -0.54835124	     -5.70711022	     -0.61629194	      0.97201154	      0.15931034	     37.60826660	     -0.65951267	     -1.83962797	    -29.25002886	     13.35633350	      0.81865801	     15.04703432	      3.54169197	     -3.34811745	    -20.17053472	     22.43781695	     -6.92423272	      0.76206737	      1.85630364	      0.16354170
      2.07000000	    -11.51923783	     -0.62151205	     -5.75560488	     -0.61361482	      0.97173013	      0.15981728	     37.74393350	     -0.51399254	     -1.90858704	    -28.22845144	     13.01667343	      1.06324721	     14.99766778	      3.43205439	     -3.38326773	    -20.27221192	     22.54843226	     -6.90803518	      0.79890278	      1.94664005	      0.26750403
      2.08000000	    -11.59616065	     -0.72469568	     -5.78946317	     -0.61086945	      0.97145689	      0.16035371	     37.85971082	     -0.34635286	     -1.98920862	    -27.22902610	     12.73664119	      1.46365715	     14.94983458	      3.28438003	     -3.44740786	    -20.38944792	     22.71592368	     -6.85330243	      0.83754681	      2.07313189	      0.30736350
      2.09000000	    -11.66955671	     -0.81580185	     -5.82522725	     -0.60810531	      0.97119216	      0.16091385	     37.97836866	     -0.18812005	     -2.05354005	    -26.28071088	     12.44526796	      1.86263762	     14.89905614	      3.15125318	     -3.48517596	    -20.51074813	     22.84994635	     -6.79017732	      0.87157559	      2.18589120	      0.36981821
      2.10000000	    -11.73895075	     -0.90572609	     -5.85655087	     -0.60529253	      0.97093916	      0.16147616	     38.09238870	     -0.03654374	     -2.12603583	    -25.38223559	     12.15434799	      2.24297537	     14.84309184	      3.02086778	     -3.51847624	    -20.63568654	     22.97511550	     -6.72483917	      0.90265624	      2.30069416	      0.42906831
      2.11000000	    -11.79205584	     -0.98227828	     -5.88300127	     -0.60243180	      0.97070885	      0.16202469	     38.20207357	      0.08964113	     -2.22093522	    -24.56213516	     11.91819043	      2.67724646	     14.76998580	      2.91097774	     -3.53064898	    -20.76387792	     23.08613289	     -6.62708645	      0.91523053	      2.40331578	      0.48509641
      2.12000000	    -11.83993373	     -1.05119668	     -5.91417744	     -0.59951180	      0.97048511	      0.16259664	     38.31790040	      0.20417307	     -2.36150642	    -23.81769223	     11.66337966	      2.87860429	     14.69245207	      2.80372085	     -3.57228106	    -20.90067337	     23.18127277	     -6.59373147	      0.92669417	      2.50030723	      0.54286385
      2.13000000	    -11.86650480	     -1.11354587	     -5.93153727	     -0.59651922	      0.97029840	      0.16316565	     38.41981377	      0.29403682	     -2.55677232	    -23.15778323	     11.50535649	      3.09973493	     14.58625764	      2.70949781	     -3.59427570	    -21.03217757	     23.27854880	     -6.52908412	      0.91809107	      2.58951549	      0.57376682
      2.14000000	    -11.87109682	     -1.16191449	     -5.94083592	     -0.59345282	      0.97014844	      0.16372484	     38.51448702	      0.35152490	     -2.81456418	    -22.59478020	     11.42553943	      3.30878313	     14.44797200	      2.63440050	     -3.61321378	    -21.15293423	     23.36469194	     -6.44096503	      0.88920404	      2.66389450	      0.58968517
      2.15000000	    -11.85826327	     -1.18967298	     -5.94651657	     -0.59032498	      0.97003019	      0.16428736	     38.61108100	      0.37498151	     -3.12547004	    -22.13736263	     11.41008447	      3.46606246	     14.28175954	      2.58453502	     -3.62852015	    -21.25821967	     23.43098420	     -6.34364566	      0.84456974	      2.71662589	      0.59929385
      2.16000000	    -11.83228227	     -1.19746317	     -5.94911764	     -0.58714459	      0.96993939	      0.16486164	     38.70972268	      0.36892061	     -3.46400345	    -21.77837444	     11.43328704	      3.56817346	     14.09333101	      2.55794667	     -3.64290214	    -21.35015589	     23.48270419	     -6.23980268	      0.78785768	      2.74719767	      0.60332661
      2.17000000	    -11.80075052	     -1.19158717	     -5.94643081	     -0.58393248	      0.96986231	      0.16545892	     38.81567440	      0.34061951	     -3.82412882	    -21.51138937	     11.46694086	      3.61394800	     13.89823466	      2.54466475	     -3.66020081	    -21.44151622	     23.51616164	     -6.14554604	      0.72624305	      2.75827096	      0.61105333
      2.18000000	    -11.76150927	     -1.18039936	     -5.94248142	     -0.58063685	      0.96981862	      0.16606090	     38.91097562	      0.29927405	     -4.19368582	    -21.31241144	     11.49111411	      3.62815458	     13.67546950	      2.53957118	     -3.67429320	    -21.50335945	     23.54257786	     -6.02730331	      0.66484074	      2.77194833	      0.60847939
      2.19000000	    -11.75004773	     -1.13936241	     -5.96330524	     -0.57732875	      0.96971690	      0.16673708	     39.05902313	      0.24662323	     -4.53099850	    -21.20601794	     11.48655315	      3.62346197	     13.48124338	      2.55290692	     -3.73397740	    -21.56097391	     23.54841922	     -5.98730167	      0.63777045	      2.75082329	      0.64967684
      2.20000000	    -11.68974263	     -1.12411933	     -5.91479034	     -0.57392720	      0.96972466	      0.16732317	     39.11359497	      0.16737021	     -4.92997702	    -21.10215858	     11.49593000	      3.57954235	     13.23318461	      2.56453475	     -3.69449723	    -21.62496752	     23.55940035	     -5.85522002	      0.55847332	      2.75625160	      0.60232087
      2.21000000	    -11.65128513	     -1.08533116	     -5.89802829	     -0.57048214	      0.96969163	      0.16798711	     39.19537342	      0.09183303	     -5.27121703	    -21.04463650	     11.46788179	      3.53391492	     12.99808974	      2.58894938	     -3.70173711	    -21.67148355	     23.55852538	     -5.77392299	      0.51128101	      2.73809592	      0.60265279
      2.22000000	    -11.61797930	     -1.04410550	     -5.87103219	     -0.56696102	      0.96965778	      0.16867338	     39.26078181	      0.01513118	     -5.58141215	    -20.99457149	     11.43545659	      3.48557205	     12.75712374	      2.61721929	     -3.68704443	    -21.70399037	     23.55033887	     -5.71323678	      0.48117489	      2.71756723	      0.59469646
      2.23000000	    -11.58330113	     -1.00312182	     -5.83335480	     -0.56336361	      0.96964039	      0.16937748	     39.29521649	     -0.05939082	     -5.85406003	    -20.93353162	     11.40834188	      3.42817035	     12.50519700	      2.64729975	     -3.65287909	    -21.72540251	     23.53232969	     -5.65756817	      0.45862477	      2.69916644	      0.57714827
      2.24000000	    -11.54800208	     -0.96371542	     -5.78939790	     -0.55968555	      0.96963748	      0.17011789	     39.29479652	     -0.12392870	     -6.07568621	    -20.84756320	     11.39522096	      3.35896157	     12.24272807	      2.67326217	     -3.60993654	    -21.73790309	     23.50358491	     -5.59512324	      0.44447993	      2.68362594	      0.55383734
      2.25000000	    -11.54857617	     -0.92017375	     -5.75665440	     -0.55594564	      0.96958139	      0.17092375	     39.31323735	     -0.17168450	     -6.24489092	    -20.75594197	     11.38936907	      3.32326068	     12.01134353	      2.69131101	     -3.58767507	    -21.74452550	     23.45554669	     -5.54807083	      0.48420141	      2.66799762	      0.55356351
